<svg xmlns="http://www.w3.org/2000/svg" viewBox="0 0 280.73 280.73"><defs><style>.cls-1{fill:#fff;}.cls-2{fill:#61b5ca;}</style></defs><g id="圖層_2" data-name="圖層 2"><g id="底"><circle class="cls-1" cx="140.37" cy="140.37" r="130.36"/></g><g id="角色"><path class="cls-2" d="M150.07,47.05,172.7,92.9a10.83,10.83,0,0,0,8.15,5.92l50.59,7.35a10.82,10.82,0,0,1,6,18.46l-36.6,35.68a10.84,10.84,0,0,0-3.12,9.58l8.65,50.39a10.83,10.83,0,0,1-15.71,11.41L145.4,207.9a10.8,10.8,0,0,0-10.07,0L90.08,231.69a10.83,10.83,0,0,1-15.71-11.41L83,169.89a10.84,10.84,0,0,0-3.12-9.58L43.3,124.63a10.82,10.82,0,0,1,6-18.46l50.59-7.35A10.83,10.83,0,0,0,108,92.9l22.63-45.85A10.82,10.82,0,0,1,150.07,47.05Z"/></g><g id="外框"><path class="cls-2" d="M140.37,280.73C63,280.73,0,217.76,0,140.37S63,0,140.37,0,280.73,63,280.73,140.37,217.76,280.73,140.37,280.73Zm0-260.73A120.37,120.37,0,1,0,260.73,140.37,120.51,120.51,0,0,0,140.37,20Z"/></g></g></svg>